{"accessors":[{"bufferView":0,"componentType":5121,"count":6,"max":[3],"min":[0],"type":"SCALAR"},{"bufferView":1,"componentType":5126,"count":4,"max":[0.019999999552965164,0.001888325554318726,0.020000001415610313],"min":[-0.019999999552965164,0.001888325554318726,-0.020000001415610313],"type":"VEC3"},{"bufferView":2,"componentType":5126,"count":4,"max":[0.0,1.0,-0.0],"min":[0.0,1.0,-0.0],"type":"VEC3"},{"bufferView":3,"componentType":5126,"count":4,"max":[1.0,1.0],"min":[0.0,0.0],"type":"VEC2"},{"bufferView":4,"componentType":5126,"count":4,"max":[1.0,1.0,1.0,1.0],"min":[1.0,1.0,1.0,1.0],"type":"VEC4"},{"bufferView":5,"componentType":5121,"count":6,"max":[3],"min":[0],"type":"SCALAR"},{"bufferView":6,"componentType":5126,"count":4,"max":[0.019999999552965164,0.001562011311762035,0.020000001415610313],"min":[-0.019999999552965164,0.001562011311762035,-0.020000001415610313],"type":"VEC3"},{"bufferView":7,"componentType":5126,"count":4,"max":[0.0,-1.0,-0.0],"min":[0.0,-1.0,-0.0],"type":"VEC3"},{"bufferView":8,"componentType":5126,"count":4,"max":[1.0,1.0],"min":[0.0,0.0],"type":"VEC2"},{"bufferView":9,"componentType":5126,"count":4,"max":[1.0,1.0,1.0,1.0],"min":[1.0,1.0,1.0,1.0],"type":"VEC4"},{"bufferView":10,"componentType":5121,"count":24,"max":[15],"min":[0],"type":"SCALAR"},{"bufferView":11,"componentType":5126,"count":16,"max":[0.019999999552965164,0.001888325554318726,0.020000001415610313],"min":[-0.019999999552965164,0.001562011311762035,-0.020000001415610313],"type":"VEC3"},{"bufferView":12,"componentType":5126,"count":16,"max":[1.0,0.0,1.0],"min":[-1.0,0.0,-1.0],"type":"VEC3"},{"bufferView":13,"componentType":5126,"count":16,"max":[1.0,1.0],"min":[0.0,0.0],"type":"VEC2"},{"bufferView":14,"componentType":5126,"count":16,"max":[1.0,1.0,1.0,1.0],"min":[1.0,1.0,1.0,1.0],"type":"VEC4"},{"bufferView":15,"componentType":5125,"count":1900668,"max":[524413],"min":[0],"type":"SCALAR"},{"bufferView":16,"componentType":5126,"count":524414,"max":[0.01953963376581669,0.001562012592330575,0.01962973363697529],"min":[-0.019609708338975906,-1.8626451769865326e-10,-0.019706085324287415],"type":"VEC3"},{"bufferView":17,"componentType":5126,"count":524414,"max":[1.0,1.0,1.0],"min":[-1.0,-1.0,-1.0],"type":"VEC3"},{"bufferView":18,"componentType":5126,"count":524414,"max":[1.0,0.9900000095367432],"min":[-1.862645149230957e-07,0.0],"type":"VEC2"},{"bufferView":19,"componentType":5126,"count":524414,"max":[1.0,1.0,1.0,1.0],"min":[1.0,1.0,1.0,1.0],"type":"VEC4"},{"bufferView":20,"componentType":5121,"count":126,"max":[43],"min":[0],"type":"SCALAR"},{"bufferView":21,"componentType":5126,"count":44,"max":[0.01876470074057579,0.004338324069976807,0.01876470260322094],"min":[-0.01876470074057579,0.004338324069976807,-0.01876470260322094],"type":"VEC3"},{"bufferView":22,"componentType":5126,"count":44,"max":[-0.0,1.0,-0.0],"min":[-0.0,1.0,-0.0],"type":"VEC3"},{"bufferView":23,"componentType":5126,"count":44,"max":[1.0,1.0],"min":[0.0,0.0],"type":"VEC2"},{"bufferView":24,"componentType":5126,"count":44,"max":[1.0,1.0,1.0,1.0],"min":[1.0,1.0,1.0,1.0],"type":"VEC4"},{"bufferView":25,"componentType":5123,"count":3294,"max":[976],"min":[0],"type":"SCALAR"},{"bufferView":26,"componentType":5126,"count":977,"max":[0.019169794395565987,0.004338324069976807,0.019169798120856285],"min":[-0.019169794395565987,0.001888324273750186,-0.019169798120856285],"type":"VEC3"},{"bufferView":27,"componentType":5126,"count":977,"max":[0.9992290735244751,1.0,0.9992290139198303],"min":[-0.9992290735244751,-1.0,-0.9992290139198303],"type":"VEC3"},{"bufferView":28,"componentType":5126,"count":977,"max":[0.9923959970474243,1.0],"min":[0.0,-1.1920928955078125e-07],"type":"VEC2"},{"bufferView":29,"componentType":5126,"count":977,"max":[1.0,1.0,1.0,1.0],"min":[1.0,1.0,1.0,1.0],"type":"VEC4"}],"asset":{"generator":"Verge3D for Blender v4.8.0","version":"2.0"},"bufferViews":[{"buffer":0,"byteLength":6,"byteOffset":0,"target":34963},{"buffer":0,"byteLength":48,"byteOffset":8,"target":34962},{"buffer":0,"byteLength":48,"byteOffset":56,"target":34962},{"buffer":0,"byteLength":32,"byteOffset":104,"target":34962},{"buffer":0,"byteLength":64,"byteOffset":136,"target":34962},{"buffer":0,"byteLength":6,"byteOffset":200,"target":34963},{"buffer":0,"byteLength":48,"byteOffset":208,"target":34962},{"buffer":0,"byteLength":48,"byteOffset":256,"target":34962},{"buffer":0,"byteLength":32,"byteOffset":304,"target":34962},{"buffer":0,"byteLength":64,"byteOffset":336,"target":34962},{"buffer":0,"byteLength":24,"byteOffset":400,"target":34963},{"buffer":0,"byteLength":192,"byteOffset":424,"target":34962},{"buffer":0,"byteLength":192,"byteOffset":616,"target":34962},{"buffer":0,"byteLength":128,"byteOffset":808,"target":34962},{"buffer":0,"byteLength":256,"byteOffset":936,"target":34962},{"buffer":0,"byteLength":7602672,"byteOffset":1192,"target":34963},{"buffer":0,"byteLength":6292968,"byteOffset":7603864,"target":34962},{"buffer":0,"byteLength":6292968,"byteOffset":13896832,"target":34962},{"buffer":0,"byteLength":4195312,"byteOffset":20189800,"target":34962},{"buffer":0,"byteLength":8390624,"byteOffset":24385112,"target":34962},{"buffer":0,"byteLength":126,"byteOffset":32775736,"target":34963},{"buffer":0,"byteLength":528,"byteOffset":32775864,"target":34962},{"buffer":0,"byteLength":528,"byteOffset":32776392,"target":34962},{"buffer":0,"byteLength":352,"byteOffset":32776920,"target":34962},{"buffer":0,"byteLength":704,"byteOffset":32777272,"target":34962},{"buffer":0,"byteLength":6588,"byteOffset":32777976,"target":34963},{"buffer":0,"byteLength":11724,"byteOffset":32784564,"target":34962},{"buffer":0,"byteLength":11724,"byteOffset":32796288,"target":34962},{"buffer":0,"byteLength":7816,"byteOffset":32808012,"target":34962},{"buffer":0,"byteLength":15632,"byteOffset":32815828,"target":34962}],"buffers":[{"byteLength":32831460,"uri":"am4cpu.bin"}],"cameras":[{"extensions":{"S8S_v3d_camera":{"controls":"ORBIT","enablePan":true,"moveSpeed":1.0,"orbitMaxDistance":100.0,"orbitMaxPolarAngle":3.1415927410125732,"orbitMaxZoom":100.0,"orbitMinDistance":0.0,"orbitMinPolarAngle":0.0,"orbitMinZoom":0.009999999776482582,"orbitTarget":[0.0,0.0,-0.0],"rotateSpeed":1.0,"viewportFitInitialAspect":1.7777777777777777,"viewportFitType":"AUTO"}},"name":"Camera","perspective":{"aspectRatio":1.7777777777777777,"yfov":0.39959652046304894,"zfar":100.0,"znear":0.10000000149011612},"type":"perspective"}],"extensions":{"S8S_v3d_lights":{"lights":[{"color":[1.0,1.0,1.0],"decay":2,"distance":31.622776955095866,"intensity":1000.0,"name":"Light","power":1000.0,"profile":"blender","shadow":{"bias":-0.0018,"cameraFar":31.622776955095866,"cameraFov":0,"cameraNear":0.05000000074505806,"enabled":true,"expBias":2.5,"mapSize":512,"radius":1.0,"slopeScaledBias":2.5},"type":"point"}]}},"extensionsUsed":["S8S_v3d_texture","S8S_v3d_materials","S8S_v3d_camera","S8S_v3d_lights","S8S_v3d_mesh","S8S_v3d_node","S8S_v3d_scene"],"images":[{"uri":"nur-schrift.png"},{"uri":"socket_am4--Platine-unten.jpg"},{"uri":"socket_am4-Metal.jpg"},{"uri":"socket_am4-Metal_oben.jpg"},{"uri":"socket_am4--Platine-oben.jpg"}],"materials":[{"alphaMode":"OPAQUE","name":"CPU-metal-rand","pbrMetallicRoughness":{"baseColorFactor":[0.39175742864608765,0.39175742864608765,0.39175742864608765,1.0],"roughnessFactor":0.12424242496490479}},{"alphaMode":"OPAQUE","name":"CPU-metall-oben","occlusionTexture":{"index":0},"pbrMetallicRoughness":{"baseColorFactor":[0.39175742864608765,0.39175742864608765,0.39175742864608765,1.0],"roughnessFactor":0.12424242496490479}},{"alphaMode":"OPAQUE","name":"Pins","pbrMetallicRoughness":{"baseColorFactor":[1.0,0.7156930565834045,0.45078593492507935,1.0],"roughnessFactor":0.06060606241226196}},{"alphaMode":"OPAQUE","name":"Rand","pbrMetallicRoughness":{"baseColorFactor":[0.0,0.15292608737945557,0.10224172472953796,1.0],"metallicFactor":0.0,"roughnessFactor":0.5}},{"alphaMode":"OPAQUE","name":"socket_am4--Platine-unten","pbrMetallicRoughness":{"baseColorFactor":[0.800000011920929,0.800000011920929,0.800000011920929,1.0],"baseColorTexture":{"index":1},"metallicRoughnessTexture":{"index":2}}},{"alphaMode":"BLEND","name":"socket_am4_Platine_oben","pbrMetallicRoughness":{"baseColorFactor":[0.800000011920929,0.800000011920929,0.800000011920929,1.0],"baseColorTexture":{"index":4},"metallicRoughnessTexture":{"index":3}}},{"alphaMode":"OPAQUE","extensions":{"S8S_v3d_materials":{"gtaoVisible":true,"materialIndex":0,"nodeGraph":{"edges":[{"fromNode":1,"fromOutput":0,"toInput":0,"toNode":0}],"nodes":[{"inputs":[[0,0,0,0],[0,0,0,0]],"is_active_output":true,"name":"World Output","outputs":[],"type":"OUTPUT_WORLD_BL"},{"inputs":[[0.05087608844041824,0.05087608844041824,0.05087608844041824,1.0],1.0],"is_active_output":false,"name":"Background","outputs":[[0,0,0,0]],"type":"BACKGROUND_BL"}]}}},"name":"Verge3D_Environment_World"}],"meshes":[{"extensions":{"S8S_v3d_mesh":{"colorLayers":{},"uvLayers":{}}},"name":"RYZEN 9 5900X-Mesh","primitives":[{"attributes":{"COLOR_0":4,"NORMAL":2,"POSITION":1,"TEXCOORD_0":3},"indices":0,"material":5,"mode":4},{"attributes":{"COLOR_0":9,"NORMAL":7,"POSITION":6,"TEXCOORD_0":8},"indices":5,"material":4,"mode":4},{"attributes":{"COLOR_0":14,"NORMAL":12,"POSITION":11,"TEXCOORD_0":13},"indices":10,"material":3,"mode":4},{"attributes":{"COLOR_0":19,"NORMAL":17,"POSITION":16,"TEXCOORD_0":18},"indices":15,"material":2,"mode":4},{"attributes":{"COLOR_0":24,"NORMAL":22,"POSITION":21,"TEXCOORD_0":23},"indices":20,"material":1,"mode":4},{"attributes":{"COLOR_0":29,"NORMAL":27,"POSITION":26,"TEXCOORD_0":28},"indices":25,"material":0,"mode":4}]}],"nodes":[{"extensions":{"S8S_v3d_node":{"frustumCulling":true,"groupNames":["Collection","Cpu amd ryzen 9 5900x"],"hidden":false,"hidpiCompositing":false,"objectColor":[1.0,1.0,1.0,1.0],"objectIndex":0,"renderOrder":0,"useCastShadows":true,"useShadows":true}},"mesh":0,"name":"RYZEN 9 5900X"},{"extensions":{"S8S_v3d_lights":{"light":0},"S8S_v3d_node":{"frustumCulling":true,"groupNames":["Collection"],"hidden":false,"hidpiCompositing":false,"objectColor":[0.0,0.0,0.0,0.0],"objectIndex":0,"renderOrder":0,"useCastShadows":true}},"name":"Light","rotation":[-0.28416627645492554,0.7269423007965088,0.34203392267227173,0.5232754945755005],"scale":[1.0,0.9999998807907104,0.9999998807907104],"translation":[4.076245307922363,5.903861999511719,-1.0054539442062378]},{"children":[0],"extensions":{"S8S_v3d_node":{"frustumCulling":true,"groupNames":["Collection","Cpu amd ryzen 9 5900x"],"hidden":false,"hidpiCompositing":false,"objectColor":[1.0,1.0,1.0,1.0],"objectIndex":0,"renderOrder":0,"useCastShadows":true}},"name":"Cpu amd ryzen 9 5900x"},{"camera":0,"extensions":{"S8S_v3d_node":{"frustumCulling":true,"groupNames":["Collection"],"hidden":false,"hidpiCompositing":false,"objectColor":[0.0,0.0,0.0,0.0],"objectIndex":0,"renderOrder":0,"useCastShadows":true}},"name":"Camera","rotation":[-0.20997299253940582,0.3857799470424652,0.09062844514846802,0.8937962055206299],"scale":[1.0,0.9999998807907104,0.9999998807907104],"translation":[7.358891487121582,4.958309173583984,6.925790786743164]}],"samplers":[{},{"magFilter":9729,"minFilter":9987,"wrapS":33071,"wrapT":33071}],"scene":0,"scenes":[{"extensions":{"S8S_v3d_scene":{"aaMethod":"AUTO","iblEnvironmentMode":"PMREM","physicallyCorrectLights":true,"pmremMaxTileSize":512,"shadowMap":{"esmDistanceScale":1.0,"renderReverseSided":false,"renderSingleSided":true,"type":"PCFPOISSON"},"toneMapping":{"look":"NONE","type":"agxBlender"},"worldMaterial":6}},"extras":{"animFrameRate":24,"coordSystem":"Z_UP_RIGHT"},"name":"Scene","nodes":[1,3,2]}],"textures":[{"extensions":{"S8S_v3d_texture":{"colorSpace":"non-color"}},"name":"nur-schrift.png","sampler":0,"source":0},{"extensions":{"S8S_v3d_texture":{"colorSpace":"srgb"}},"name":"socket_am4--Platine-unten.jpg","sampler":1,"source":1},{"extensions":{"S8S_v3d_texture":{"colorSpace":"non-color"}},"name":"socket_am4-Metal.jpg","sampler":1,"source":2},{"extensions":{"S8S_v3d_texture":{"colorSpace":"non-color"}},"name":"socket_am4-Metal_oben.jpg","sampler":1,"source":3},{"extensions":{"S8S_v3d_texture":{"colorSpace":"srgb"}},"name":"socket_am4--Platine-oben.jpg","sampler":1,"source":4}]}
